<?xml version="1.0" encoding="UTF-8"?>
<svg xmlns="http://www.w3.org/2000/svg" xmlns:xlink="http://www.w3.org/1999/xlink" version="1.1" viewBox="0 0 1152.4 213.1">
  <defs>
    <style>
      .cls-1 {
        fill: #dbbaff;
      }

      .cls-2 {
        fill: #6941c6;
      }

      .cls-3, .cls-4 {
        isolation: isolate;
      }

      .cls-4 {
        fill: url(#linear-gradient);
        mix-blend-mode: multiply;
      }
    </style>
    <linearGradient id="linear-gradient" x1="6.5" y1="118" x2="483.2" y2="118" gradientTransform="translate(0 216) scale(1 -1)" gradientUnits="userSpaceOnUse">
      <stop offset="0" stop-color="#b685eb" stop-opacity=".3"/>
      <stop offset="1" stop-color="#d7bdfb"/>
    </linearGradient>
  </defs>
  <!-- Generator: Adobe Illustrator 28.6.0, SVG Export Plug-In . SVG Version: 1.2.0 Build 709)  -->
  <g>
    <g id="Layer_1">
      <g class="cls-3">
        <g id="Layer_1-2" data-name="Layer_1">
          <g>
            <g>
              <path class="cls-2" d="M123.4,89.8v.2h0L19.6,8.3c-3.4-2.7-8.3-2.2-11,1.1l-.2.2c-2.7,3.2-2.4,8,.6,10.9,23,21.9,38.3,51.6,38.3,85.9s-14,64.6-36.4,86.5c-3.1,3.1-3.2,8.1-.2,11.2,2.8,2.9,7.4,3.3,10.7.7l102-79.9c11.4-8.9,11.4-26.1,0-35.1h0Z"/>
              <path class="cls-2" d="M570,98.3c4-2,7.3-4.6,9.8-8,3.5-4.6,5.2-10.5,5.2-16.6s-1.5-11.4-4.5-15.8-7.1-7.9-12.4-10.4c-5.3-2.5-11.5-3.7-18.8-3.7h-58.5c-.5,1.2-.8,2.4-1,3.8-.2,1.3-.3,2.7-.3,4.1s0,2.7.3,4.1c.2,1.3.6,2.6,1,3.8h11.7v86.6h-11.7c-.5,1.2-.8,2.4-1,3.8-.2,1.3-.3,2.7-.3,4.1v.2c0,1.4,0,2.7.3,4.1.2,1.3.6,2.6,1,3.8h59.8c8.4,0,15.6-1.4,21.7-4.3s10.8-6.9,14.2-12.2c3.3-5.2,5-11.1,5-18.4s-2.1-13.5-6.3-18.7c-3.7-4.6-8.8-8-15.2-10.3ZM544.6,60.4c6.2,0,10.8,1.3,13.8,3.8,3,2.6,4.5,5.9,4.5,11.3s-1.5,9.6-4.6,12.5-7.7,4.4-13.9,4.4h-20.6v-32s20.8,0,20.8,0ZM512.9,92.3h0ZM563.4,140.5c-3.6,3.2-8.6,4.8-15.1,4.8h-24.5v-36.4h23.4c7.1,0,12.4,1.6,16.1,4.7,3.7,3.1,5.5,7.4,5.5,13.3s-1.8,10.4-5.4,13.6Z"/>
              <path class="cls-2" d="M678.9,147.7v-70h-31c-1,2-1.5,4.4-1.5,7.1s.5,5.1,1.5,7.3h10.2v32.6c0,7.1-1.5,12.7-4.4,16.8s-7.3,6.1-12,6.1-8.1-1.4-10.2-4.1c-2.1-2.7-3.1-7.1-3.1-13.3v-52.6h-31c-1,2-1.5,4.4-1.5,7.1s.5,5.1,1.5,7.3h10.2v43.7h0c0,9.1,2.3,16.1,7.1,21.1,4.7,5,13.9,7.5,20.1,7.5s11.5-1.2,16-3.7,7.3-5.3,10.3-9.5l.3,11h27.6c1-2.2,1.5-4.6,1.5-7.3s-.5-5-1.5-7.1h-10.2,0Z"/>
              <path class="cls-2" d="M741.9,111.9l-12.8-3.4c-4.7-1.2-7.8-2.4-9.5-3.8s-2.5-2.8-2.5-5.8,1.2-5.4,3.6-7.2c2.4-1.8,6.6-2.7,9.9-2.7s6.2.6,8.7,1.8,4.5,2.8,6,4.8,2.2,4.4,2.2,7.1v2.9c2.1.7,4.6,1.1,7.6,1.1s5.6-.3,7.8-1.1v-27.6c-1-.5-2.1-.8-3.4-1-1.3-.3-2.6-.3-3.9-.3s-2.6,0-3.8.3c-1.3.2-2.4.6-3.5,1v6.5c-2.1-2.9-5-5.1-8.8-6.7s-7-2.4-12.8-2.4-10.8,1-15.2,3.2c-4.3,2.2-7.7,5.2-10.1,9.1-2.4,3.9-3.6,7.9-3.6,13.6s1.7,10.5,5.1,14.3c3.5,3.8,8.8,6.7,16.2,8.9l14.8,4.1c5,1.4,8.4,2.9,10.3,4.6,1.9,1.7,2.8,4.1,2.8,7.1s-1.3,5.4-3.9,7.1c-2.6,1.7-7.1,2.6-11,2.6s-7.4-.6-10.5-2c-3.1-1.3-5.5-3.2-7.2-5.5-1.7-2.4-2.6-5-2.6-7.9v-3.1c-2.3-.9-4.7-1.3-7.5-1.3s-5.3.4-7.6,1.3v29.9c2.2,1,4.5,1.5,7.3,1.5s5.3-.5,7.5-1.5h-.2v-6.5c2.9,3.2,6.4,5.5,10.6,7.1s8.1,2.4,14.2,2.4,11.5-1.1,16.2-3.3,8.3-5.2,11-9,4-5.6,4-13-2-13.2-5.8-17.4c-3.8-4.2-10.4-7.4-19.6-9.7h0Z"/>
              <path class="cls-2" d="M806.6,147.7v-70h-31c-.9,2-1.3,4.4-1.3,7.1s.4,5.1,1.3,7.3h10.2v55.5h-10.2c-.9,2-1.3,4.4-1.3,7.1h0c0,2.8.4,5.2,1.3,7.4h41.4c1-2.2,1.5-4.6,1.5-7.3s-.5-5-1.5-7.1h-10.4Z"/>
              <path class="cls-2" d="M794.1,63.4c3.7,0,6.7-1.1,9-3.3s3.5-4.8,3.5-8.2-1.2-6.2-3.5-8.4-5.3-3.3-9-3.3-6.7,1.1-9,3.3c-2.3,2.3-3.5,5-3.5,8.4s1.2,6,3.5,8.2,5.3,3.3,9,3.3Z"/>
              <path class="cls-2" d="M822.4,154.7h0Z"/>
              <path class="cls-2" d="M905.4,147.5v-43.8c0-8.9-2.3-15.9-7.1-20.9s-11.5-7.5-20-7.5-8.2.7-11.8,1.9c-3.6,1.3-6.7,3.1-9.3,5.4-1.9,1.8-3.5,3.8-4.8,6l-.6-10.9h-28.1c-.9,2-1.3,4.4-1.3,7.1s.4,5.1,1.3,7.3h10.4v55.5h-10.4c-.9,2-1.3,4.3-1.3,7h.2c0,2.7.4,5.1,1.3,7.3h40.4c.9-2.2,1.3-4.6,1.3-7.3s-.4-5-1.3-7.1h-9.3v-32.8c0-7.3,1.5-12.9,4.4-16.9s7.1-6,12-6,8.3,1.3,10.3,4,3,7.1,3,13.4v38.3h-9.3c-.9,2.1-1.3,4.4-1.3,7.1s.4,5.1,1.3,7.3h40.4c.9-2.2,1.3-4.6,1.3-7.3s-.4-5-1.3-7.1h-10.4Z"/>
              <path class="cls-2" d="M979.6,80.6c-5.5-3.5-12.1-5.2-19.8-5.2s-14.4,1.8-20.1,5.4c-5.7,3.6-10.2,8.8-13.4,15.5s-4.8,14.5-4.8,23.4h0c0,9.2,1.8,17,5.4,23.7,3.7,6.6,8.7,11.8,15.3,15.5,6.5,3.7,14.3,5.5,23.3,5.5s9.6-.6,14.5-1.7c4.9-1.2,9.2-2.7,12.9-4.5v-17.7c-4.7,2.6-9,4.4-13.1,5.5s-5.8,1.6-12.6,1.6-12.5-2-16.9-6.1c-4.5-4-7-9.5-7.5-16.3h53.9v-6.3c0-9.1-1.5-16.9-4.5-23.4-2.9-6.5-7.2-11.4-12.7-14.9h0ZM942.5,112.3c.2-4.2.9-8,2.4-11.2h0c1.5-3.3,3.5-5.9,6.1-7.8s3.3-2.8,8.6-2.8,9.4,1.9,12.3,5.7c2.9,3.8,4.5,9.2,4.5,16.1h-33.9,0Z"/>
              <path class="cls-2" d="M1050.7,111.9l-12.8-3.4c-4.7-1.2-7.8-2.4-9.5-3.8s-2.5-2.8-2.5-5.8,1.2-5.4,3.6-7.2c2.4-1.8,6.6-2.7,9.9-2.7s6.2.6,8.7,1.8,4.5,2.8,6,4.8,2.2,4.4,2.2,7.1v2.9c2.1.7,4.6,1.1,7.6,1.1s5.6-.3,7.8-1.1v-27.6c-1-.5-2.1-.8-3.4-1-1.3-.3-2.6-.3-3.9-.3s-2.6,0-3.8.3c-1.3.2-2.4.6-3.5,1v6.5c-2.1-2.9-5-5.1-8.8-6.7s-7-2.4-12.8-2.4-10.8,1-15.2,3.2c-4.3,2.2-7.7,5.2-10.1,9.1-2.4,3.9-3.6,7.9-3.6,13.6s1.7,10.5,5.1,14.3c3.5,3.8,8.8,6.7,16.2,8.9l14.8,4.1c5,1.4,8.4,2.9,10.3,4.6,1.9,1.7,2.8,4.1,2.8,7.1s-1.3,5.4-3.9,7.1c-2.6,1.7-7.1,2.6-11,2.6s-7.4-.6-10.5-2c-3.1-1.3-5.5-3.2-7.2-5.5-1.7-2.4-2.6-5-2.6-7.9v-3.1c-2.3-.9-4.7-1.3-7.5-1.3s-5.3.4-7.6,1.3v29.9c2.2,1,4.5,1.5,7.3,1.5s5.3-.5,7.5-1.5h-.2v-6.5c2.9,3.2,6.4,5.5,10.6,7.1s8.1,2.4,14.2,2.4,11.5-1.1,16.2-3.3,8.3-5.2,11-9,4-5.6,4-13-2-13.2-5.8-17.4c-3.8-4.2-10.4-7.4-19.6-9.7h0Z"/>
              <path class="cls-2" d="M1150.2,121.6c-3.8-4.2-10.4-7.4-19.6-9.7l-12.8-3.4c-4.7-1.2-7.8-2.4-9.5-3.8s-2.5-2.8-2.5-5.8,1.2-5.4,3.6-7.2c2.4-1.8,6.6-2.7,9.9-2.7s6.2.6,8.7,1.8,4.5,2.8,6,4.8,2.2,4.4,2.2,7.1v2.9c2.1.7,4.6,1.1,7.6,1.1s5.6-.3,7.8-1.1v-27.6c-1-.5-2.1-.8-3.4-1-1.3-.3-2.6-.3-3.9-.3s-2.6,0-3.8.3c-1.3.2-2.4.6-3.5,1v6.5c-2.1-2.9-5-5.1-8.8-6.7s-7-2.4-12.8-2.4-10.8,1-15.2,3.2c-4.3,2.2-7.7,5.2-10.1,9.1s-3.6,7.9-3.6,13.6,1.7,10.5,5.1,14.3c3.5,3.8,8.8,6.7,16.2,8.9l14.8,4.1c5,1.4,8.4,2.9,10.3,4.6,1.9,1.7,2.8,4.1,2.8,7.1s-1.3,5.4-3.9,7.1c-2.6,1.7-7.1,2.6-11,2.6s-7.4-.6-10.5-2c-3.1-1.3-5.5-3.2-7.2-5.5-1.7-2.4-2.6-5-2.6-7.9v-3.1c-2.3-.9-4.7-1.3-7.5-1.3s-5.3.4-7.6,1.3v29.9c2.2,1,4.5,1.5,7.3,1.5s5.3-.5,7.5-1.5h-.2v-6.5c2.9,3.2,6.4,5.5,10.6,7.1s8.1,2.4,14.2,2.4,11.5-1.1,16.2-3.3,8.3-5.2,11-9,4-5.6,4-13-2-13.2-5.8-17.4h0Z"/>
            </g>
            <path class="cls-1" d="M123.3,125l-54.1,42.4c-.2-32.7-9.5-63.2-25.5-89.2-5.8-22.4-18.2-42.1-34.7-57.7-3-2.9-3.3-7.7-.6-10.9l.2-.2c2.7-3.3,7.6-3.8,11-1.1l103.7,81.7h0c11.4,8.9,11.4,26.1,0,35ZM242.9,60c3,5.2,4.5,11.2,4.5,18s-1.5,13.4-4.5,18.7c-3,5.3-7.1,9.4-12.5,12.3s-11.7,4.4-19.1,4.4h-26.5v32.6h13.5c.4,1.3.8,2.6,1,3.9.2,1.3.3,2.7.3,4.1s0,2.6-.3,4c-.2,1.4-.5,2.7-1,4h-46.6c-.4-1.3-.8-2.6-1-4s-.3-2.7-.3-4h-.2c0-1.4.1-2.7.3-4s.5-2.6,1-3.9h11.7V59.6h-11.7c-.4-1.3-.8-2.6-1-4s-.3-2.7-.3-4,.1-2.6.3-4,.5-2.7,1-4h59.6c7.4,0,13.7,1.4,19.2,4.3,5.4,2.9,9.6,6.9,12.6,12.1h0ZM225.2,78.1c0-6.2-1.6-10.1-4.9-13.2-3.2-3.1-8-4.6-14.1-4.6h-21.4v36.5h20.7c6.6,0,11.5-1.6,14.8-4.7,3.2-3.1,4.9-7.8,4.9-14ZM150.2,154.1h0c0-.1,0,0,0,0ZM293.5,78.2c-3.4,1.9-6.3,4.4-8.7,7.5-1.7,2.2-2.8,4.4-3.5,6.6l-.4-14.6h-28.3c-.9,2-1.3,4.4-1.3,7.1s.4,5.1,1.3,7.3h10.4v55.5h-10.4c-.9,2-1.3,4.4-1.3,7.1h0c0,2.8.4,5.2,1.3,7.4h42.5c1-2.2,1.5-4.6,1.5-7.3s-.5-5-1.5-7.1h-11.4v-28.4c0-5.2.7-9.6,2.1-13.3s3.5-6.6,6.2-8.7,5.5-3.2,9.3-3.2,7.3.8,10.7,2.4v-19.8c-2-.9-5.1-1.3-8.4-1.3s-6.7.9-10.1,2.8h0ZM384.2,95.5c3,6.5,4.5,14.3,4.5,23.4v6.3h-53.9c.5,6.8,3,12.3,7.5,16.3,4.4,4.1,10.1,6.1,16.9,6.1s8.5-.5,12.6-1.6,8.4-2.9,13.1-5.5v17.7c-3.7,1.8-8,3.3-12.9,4.5-4.9,1.1-9.8,1.7-14.5,1.7-9,0-16.8-1.8-23.3-5.5-6.6-3.7-11.6-8.9-15.3-15.5-3.6-6.7-5.4-14.5-5.4-23.6h0c0-9,1.6-16.8,4.8-23.5,3.2-6.7,7.7-11.9,13.4-15.5,5.7-3.6,12.4-5.4,20.1-5.4s14.3,1.7,19.8,5.2,9.8,8.4,12.7,14.9h-.1ZM368.3,112.3c-.1-6.9-1.6-12.3-4.5-16.1-2.9-3.8-7-5.7-12.3-5.7s-6,.9-8.6,2.8-4.6,4.5-6.1,7.7h0c-1.5,3.3-2.2,7.1-2.4,11.3,0,0,33.9,0,33.9,0ZM483.2,118c0,8.7-1.4,17.2-4.3,24s-6.9,12.1-12.2,15.8c-5.3,3.7-11.6,5.5-18.9,5.5s-8.9-1.1-13-3.2c-4.1-2.2-7-4.8-8.8-7.8v23.1h12.2c1,2.1,1.5,4.4,1.5,7s-.5,5-1.5,7.1h-43.2c-1-2.2-1.5-4.6-1.5-7.3v-.2h0c0-2.7.5-5.1,1.5-7.3h10.2v-82.7h-10.2c-.9-2.2-1.3-4.6-1.3-7.3s.4-5.1,1.3-7.1h29.2l.4,10.7c2.6-4,5.8-7.1,9.5-9.2,4.3-2.5,9.2-3.7,14.9-3.7s12.8,1.7,17.9,5.2,9.1,8.4,11.9,14.8c2.9,6.4,4.3,13.9,4.3,22.6h.1ZM462,119c0-8.5-1.6-15.3-4.7-20s-7.6-7-13.5-7-10.5,2.4-13.7,7.1-4.8,11.6-4.8,20.5h-.1c0,5.4.8,10.1,2.4,14.1,1.6,4.1,3.8,7.2,6.6,9.4,2.8,2.2,6,3.3,9.6,3.3,5.6,0,10.1-2.4,13.3-7.3,3.2-4.9,4.9-11.6,4.9-20.1h0Z"/>
            <path class="cls-4" d="M123.3,125l-54.1,42.4c-.2-32.7-9.5-63.2-25.5-89.2-5.8-22.4-18.2-42.1-34.7-57.7-3-2.9-3.3-7.7-.6-10.9l.2-.2c2.7-3.3,7.6-3.8,11-1.1l103.7,81.7h0c11.4,8.9,11.4,26.1,0,35ZM242.9,60c3,5.2,4.5,11.2,4.5,18s-1.5,13.4-4.5,18.7c-3,5.3-7.1,9.4-12.5,12.3s-11.7,4.4-19.1,4.4h-26.5v32.6h13.5c.4,1.3.8,2.6,1,3.9.2,1.3.3,2.7.3,4.1s0,2.6-.3,4c-.2,1.4-.5,2.7-1,4h-46.6c-.4-1.3-.8-2.6-1-4s-.3-2.7-.3-4h-.2c0-1.4.1-2.7.3-4s.5-2.6,1-3.9h11.7V59.6h-11.7c-.4-1.3-.8-2.6-1-4s-.3-2.7-.3-4,.1-2.6.3-4,.5-2.7,1-4h59.6c7.4,0,13.7,1.4,19.2,4.3,5.4,2.9,9.6,6.9,12.6,12.1h0ZM225.2,78.1c0-6.2-1.6-10.1-4.9-13.2-3.2-3.1-8-4.6-14.1-4.6h-21.4v36.5h20.7c6.6,0,11.5-1.6,14.8-4.7,3.2-3.1,4.9-7.8,4.9-14ZM150.2,154.1h0c0-.1,0,0,0,0ZM293.5,78.2c-3.4,1.9-6.3,4.4-8.7,7.5-1.7,2.2-2.8,4.4-3.5,6.6l-.4-14.6h-28.3c-.9,2-1.3,4.4-1.3,7.1s.4,5.1,1.3,7.3h10.4v55.5h-10.4c-.9,2-1.3,4.4-1.3,7.1h0c0,2.8.4,5.2,1.3,7.4h42.5c1-2.2,1.5-4.6,1.5-7.3s-.5-5-1.5-7.1h-11.4v-28.4c0-5.2.7-9.6,2.1-13.3s3.5-6.6,6.2-8.7,5.5-3.2,9.3-3.2,7.3.8,10.7,2.4v-19.8c-2-.9-5.1-1.3-8.4-1.3s-6.7.9-10.1,2.8h0ZM384.2,95.5c3,6.5,4.5,14.3,4.5,23.4v6.3h-53.9c.5,6.8,3,12.3,7.5,16.3,4.4,4.1,10.1,6.1,16.9,6.1s8.5-.5,12.6-1.6,8.4-2.9,13.1-5.5v17.7c-3.7,1.8-8,3.3-12.9,4.5-4.9,1.1-9.8,1.7-14.5,1.7-9,0-16.8-1.8-23.3-5.5-6.6-3.7-11.6-8.9-15.3-15.5-3.6-6.7-5.4-14.5-5.4-23.6h0c0-9,1.6-16.8,4.8-23.5,3.2-6.7,7.7-11.9,13.4-15.5,5.7-3.6,12.4-5.4,20.1-5.4s14.3,1.7,19.8,5.2,9.8,8.4,12.7,14.9h-.1ZM368.3,112.3c-.1-6.9-1.6-12.3-4.5-16.1-2.9-3.8-7-5.7-12.3-5.7s-6,.9-8.6,2.8-4.6,4.5-6.1,7.7h0c-1.5,3.3-2.2,7.1-2.4,11.3,0,0,33.9,0,33.9,0ZM483.2,118c0,8.7-1.4,17.2-4.3,24s-6.9,12.1-12.2,15.8c-5.3,3.7-11.6,5.5-18.9,5.5s-8.9-1.1-13-3.2c-4.1-2.2-7-4.8-8.8-7.8v23.1h12.2c1,2.1,1.5,4.4,1.5,7s-.5,5-1.5,7.1h-43.2c-1-2.2-1.5-4.6-1.5-7.3v-.2h0c0-2.7.5-5.1,1.5-7.3h10.2v-82.7h-10.2c-.9-2.2-1.3-4.6-1.3-7.3s.4-5.1,1.3-7.1h29.2l.4,10.7c2.6-4,5.8-7.1,9.5-9.2,4.3-2.5,9.2-3.7,14.9-3.7s12.8,1.7,17.9,5.2,9.1,8.4,11.9,14.8c2.9,6.4,4.3,13.9,4.3,22.6h.1ZM462,119c0-8.5-1.6-15.3-4.7-20s-7.6-7-13.5-7-10.5,2.4-13.7,7.1-4.8,11.6-4.8,20.5h-.1c0,5.4.8,10.1,2.4,14.1,1.6,4.1,3.8,7.2,6.6,9.4,2.8,2.2,6,3.3,9.6,3.3,5.6,0,10.1-2.4,13.3-7.3,3.2-4.9,4.9-11.6,4.9-20.1h0Z"/>
          </g>
        </g>
      </g>
    </g>
  </g>
</svg>